        <svg width="609" height="790" viewBox="0 0 609 790" fill="none" xmlns="http://www.w3.org/2000/svg">
            <g clip-path="url(#clip0)">
              <path d="M29.7476 554.423L0 444.847L170.304 451.471L234.196 655.905L70.9541 663.477L29.7476 554.423Z" fill="#ffffff" />
              <path d="M499.883 343.889V381.12C499.883 412.664 443.74 425.915 418.515 411.407C393.289 396.9 330.419 336.106 330.419 336.106L333.786 299.094C333.786 299.094 306.037 315.072 290.897 315.072C275.758 315.072 250.522 243.148 250.522 243.148C250.522 243.148 245.942 245.621 236.745 236.414C229.808 229.466 239.159 207.244 240.493 184.955V184.924C241.079 177.805 240.382 170.638 238.433 163.766C229.915 136.312 256.409 106.976 256.409 106.976L265.651 98.2503L265.661 98.2391C265.66 98.25 265.656 98.2608 265.651 98.27C265.446 99.9584 256.76 169.381 285.433 189.049C314.435 208.954 322.638 207.619 322.638 229.704C322.638 251.415 333.068 301.373 402.919 339.457C404.107 340.111 405.318 340.752 406.53 341.389C427.959 352.619 454.226 351.469 480.64 343.027C485.251 341.555 489.861 339.858 494.464 337.974L499.883 343.889Z" fill="url(#paint0_linear)" />
              <path d="M609 226.531C609 257.558 553.369 313.748 494.458 337.952C463.53 350.662 431.689 354.56 406.523 341.368C333.414 303.06 322.631 251.766 322.631 229.685C322.631 207.604 314.439 208.934 285.426 189.03C256.754 169.361 265.439 99.9389 265.644 98.2505C265.65 98.2413 265.654 98.2305 265.655 98.2196L265.644 98.2308L256.403 106.956C256.403 106.956 229.908 136.292 238.426 163.746C240.375 170.619 241.073 177.785 240.487 184.905V184.936C240.487 184.936 204.055 173.51 204.055 144.488C204.055 115.465 202.162 67.5069 255.146 58.0444C255.146 58.0444 262.711 18.2947 327.684 10.0887C392.657 1.88258 427.971 -12.6233 472.124 22.0725C516.277 56.7684 497.676 116.405 521.959 140.699C546.242 164.992 609 179.212 609 226.531Z" fill="url(#paint1_linear)" />
              <path d="M484.429 734.463C482.754 744.042 481.923 753.75 481.948 763.474C481.496 840.217 521.323 939.831 521.323 939.831C521.323 939.831 289.94 1009.93 161.796 939.831C154.743 927.042 162.286 817.968 170.117 750.223C176.222 697.241 182.607 654.948 182.607 654.948C182.607 654.948 154.22 607.631 154.22 564.09C154.22 525.369 193.634 500.871 202.348 457.969C203.483 452.401 204.051 446.732 204.044 441.049C203.904 425.562 207.466 410.266 214.436 396.436C221.405 382.607 231.579 370.645 244.109 361.547L330.412 336.095C330.412 336.095 393.276 396.88 418.508 411.396C443.739 425.913 499.877 412.653 499.877 381.109V343.878C512.436 346.694 524.28 352.067 534.672 359.663C545.064 367.259 553.781 376.914 560.279 388.028C584.651 428.779 581.847 485.295 574.291 514.878C562.95 559.37 498.623 656.855 484.429 734.463Z" fill="url(#paint2_linear)" />
              <path d="M275.33 680.517C275.33 710.798 269.866 763.486 217.302 763.486C202.91 763.486 186.425 758.078 170.119 750.234C126.943 729.457 84.8423 691.557 84.8423 691.557C84.8423 691.557 68.8587 688.612 63.8171 683.556C58.7756 678.5 62.7662 672.416 55.8297 665.468C48.8933 658.521 52.4651 657.055 48.2543 645.279C45.8464 637.813 46.2978 629.718 49.5211 622.567C48.3264 612.992 46.2133 603.555 43.2107 594.386C38.1691 578.821 21.978 562.203 29.7497 554.42C37.5213 546.637 64.238 573.775 69.2817 584.287C74.3254 594.798 79.3779 604.898 108.814 612.465C138.249 620.032 129.418 638.966 129.418 645.279C129.418 651.591 138.25 659.167 142.87 659.167C147.491 659.167 182.609 654.954 182.609 654.954L202.35 457.983L204.047 441.062C203.906 425.575 207.468 410.279 214.438 396.45C221.407 382.62 231.581 370.658 244.111 361.56C309.395 397.519 275.33 650.23 275.33 680.517Z" fill="url(#paint3_linear)" />
              <path d="M539.618 653.694C532.045 671.999 510.684 768.531 481.946 763.486C481.921 753.761 482.751 744.053 484.427 734.474C498.616 656.865 562.952 559.381 574.305 514.9C581.86 485.317 584.664 428.801 560.292 388.05C561.057 388.344 585.755 398.217 591.337 441.71C597.02 485.856 547.187 635.399 539.618 653.694Z" fill="url(#paint4_linear)" />
            </g>
            <defs>
              <linearGradient id="paint0_linear" x1="234.209" y1="257.757" x2="499.883" y2="257.757" gradientUnits="userSpaceOnUse">
                <stop offset="0.018" stop-color="#779FA1" />
                <stop offset="0.236" stop-color="#779FA1" />
                <stop offset="0.462" stop-color="#779FA1" />
                <stop offset="0.691" stop-color="#779FA1" />
                <stop offset="0.871" stop-color="#779FA1" />
              </linearGradient>
              <linearGradient id="paint1_linear" x1="272.079" y1="24.1001" x2="507.468" y2="339.534" gradientUnits="userSpaceOnUse">
                <stop stop-color="#E4D2B4" />
                <stop offset="0.109" stop-color="#E0CBA8" />
                <stop offset="0.252" stop-color="#CEAD78" />
                <stop offset="0.391" stop-color="#C49B5A" />
                <stop offset="0.521" stop-color="#B48841" />
              </linearGradient>
              <linearGradient id="paint2_linear" x1="154.22" y1="653.541" x2="579.644" y2="653.541" gradientUnits="userSpaceOnUse">
                <stop offset="0.018" stop-color="#C62C00" />
                <stop offset="0.251" stop-color="#CF3508" />
                <stop offset="0.528" stop-color="#E24817" />
              </linearGradient>
              <linearGradient id="paint3_linear" x1="27.674" y1="562.523" x2="284.214" y2="562.523" gradientUnits="userSpaceOnUse">
                <stop offset="0.147" stop-color="#779FA1" />
                <stop offset="0.491" stop-color="#779FA1" />
                <stop offset="0.667" stop-color="#779FA1" />
                <stop offset="0.806" stop-color="#779FA1" />
                <stop offset="0.924" stop-color="#779FA1" />
                <stop offset="1" stop-color="#6d8a8c" />
              </linearGradient>
              <linearGradient id="paint4_linear" x1="481.945" y1="575.863" x2="591.788" y2="575.863" gradientUnits="userSpaceOnUse">
                <stop offset="0.147" stop-color="#779FA1" />
                <stop offset="0.81" stop-color="#6d8a8c" />
              </linearGradient>
              <clipPath id="clip0">
                <rect width="609" height="971" fill="white" />
              </clipPath>
            </defs>
          </svg>

